<svg id="Ebene_1" data-name="Ebene 1" xmlns="http://www.w3.org/2000/svg" width="118.54mm" height="16.73mm" viewBox="0 0 336.01 47.41">
  <defs>
    <style>
      .cls-1 {
        fill: #1d1d1b;
      }

      .cls-2 {
        fill: #c6c6c6;
      }
    </style>
  </defs>
  <title>Robotik-Logo</title>
  <path class="cls-1" d="M299.93,277.79h1.73V303h13.05v1a0.65,0.65,0,0,1-.69.69H299.93V277.79Z" transform="translate(-244.28 -277.29)"/>
  <path class="cls-1" d="M326.57,281.37c0.69-2.62,2.35-4.08,4.35-4.08s3.7,1.5,4.39,4.12l6.08,23.25H339.7l-2.19-8.32H324.34l-2.16,8.32h-1.69Zm10.51,13.4-3.39-13c-0.42-1.62-1.16-2.77-2.77-2.77s-2.27,1-2.73,2.73l-3.43,13.05h12.32Z" transform="translate(-244.28 -277.29)"/>
  <path class="cls-1" d="M348.9,278.87a21.19,21.19,0,0,1,7.43-1.54c4.93,0,7.66,3.16,7.66,6.93a6.66,6.66,0,0,1-3.62,6,6.91,6.91,0,0,1,5,6.89c0,4-2.66,7.47-8.08,7.47H348.9V278.87Zm7.39,10.86c4.27,0,5.89-2.46,5.89-5.27s-1.58-5.51-5.85-5.51a17.26,17.26,0,0,0-5.7,1v9.78h5.66Zm1,13.28c4.7,0,6.28-3,6.28-5.81s-1.62-5.81-6.31-5.81h-6.62V303h6.66Z" transform="translate(-244.28 -277.29)"/>
  <path class="cls-1" d="M371.81,288c0-6.47,3.7-10.66,9.78-10.66s9.78,4.2,9.78,10.66v6.51c0,6.66-3.7,10.7-9.78,10.7s-9.78-4-9.78-10.7V288Zm9.78,15.55c6,0,8-4.43,8-9.43v-5.74c0-5-2-9.39-8-9.39s-8,4.43-8,9.39v5.74C373.58,299.08,375.54,303.51,381.59,303.51Z" transform="translate(-244.28 -277.29)"/>
  <path class="cls-1" d="M399.83,278.64a24.91,24.91,0,0,1,8-1.35c5.2,0,7.93,3.93,7.93,8.12a7.76,7.76,0,0,1-6.74,7.89l5.81,11.36H413l-5.81-11.24h-5.58v11.24h-1.73v-26Zm7.51,13.17a6.28,6.28,0,0,0,6.62-6.39c0-3.12-1.62-6.47-6.16-6.47a23.07,23.07,0,0,0-6.24.92V291.8h5.78Z" transform="translate(-244.28 -277.29)"/>
  <path class="cls-1" d="M423,278.83a29,29,0,0,1,8.51-1.54c5.85,0,9,4.2,9,8.74a8.35,8.35,0,0,1-5.47,7.85l5.12,10.78h-5l-4.66-10.12h-2.89v10.13H423V278.83Zm8.08,12c3,0,4.58-2.08,4.58-4.81,0-2.58-1.16-4.85-4.16-4.85a12.62,12.62,0,0,0-3.93.58v9.09h3.5Z" transform="translate(-244.28 -277.29)"/>
  <path class="cls-1" d="M445.88,288.57c0-6.58,3.89-11.28,10.55-11.28S467,282,467,288.57v5.31c0,6.62-3.89,11.28-10.55,11.28s-10.55-4.66-10.55-11.28v-5.31Zm10.55,12.7c4.58,0,5.85-3.62,5.85-7.82V289c0-4.16-1.27-7.82-5.85-7.82s-5.85,3.66-5.85,7.82v4.47C450.58,297.66,451.89,301.28,456.43,301.28Z" transform="translate(-244.28 -277.29)"/>
  <path class="cls-1" d="M473.95,279.06a22.53,22.53,0,0,1,8-1.77c5.47,0,8.7,3.46,8.7,7.62a5.93,5.93,0,0,1-3,5.43,6.59,6.59,0,0,1,4.39,6.35c0,4.35-3.39,8-9.43,8h-8.62v-25.6Zm7.89,9.82a3.71,3.71,0,0,0,4.08-3.89c0-2.16-1.23-3.81-4-3.81a9.73,9.73,0,0,0-3.35.58v7.12h3.31Zm0.58,11.9c3.2,0,4.77-1.81,4.77-4.08s-1.31-4.2-4.77-4.2h-3.89v8.28h3.89Z" transform="translate(-244.28 -277.29)"/>
  <path class="cls-1" d="M497.39,288.57c0-6.58,3.89-11.28,10.55-11.28s10.55,4.7,10.55,11.28v5.31c0,6.62-3.89,11.28-10.55,11.28s-10.55-4.66-10.55-11.28v-5.31Zm10.55,12.7c4.58,0,5.85-3.62,5.85-7.82V289c0-4.16-1.27-7.82-5.85-7.82s-5.85,3.66-5.85,7.82v4.47C502.09,297.66,503.4,301.28,507.94,301.28Z" transform="translate(-244.28 -277.29)"/>
  <path class="cls-1" d="M529.73,281.68h-6.62v-3.89h17.82v3.89h-6.62v23h-4.58v-23Z" transform="translate(-244.28 -277.29)"/>
  <path class="cls-1" d="M546.94,277.79h4.58v25.95a0.85,0.85,0,0,1-.92.92h-3.66V277.79Z" transform="translate(-244.28 -277.29)"/>
  <path class="cls-1" d="M559.45,277.79H564v11.28l2.77-.19,5-11.09h5.08l-5.58,11.51a5.47,5.47,0,0,1,3.12,3.66l4,11.7h-4.81L570,294.15a1.93,1.93,0,0,0-2.08-1.5l-3.93.27v10.82a0.85,0.85,0,0,1-.92.92h-3.66V277.79Z" transform="translate(-244.28 -277.29)"/>
  <path class="cls-1" d="M394.26,313h0.9v8.81a0.24,0.24,0,0,1-.26.26h-0.64V313Z" transform="translate(-244.28 -277.29)"/>
  <path class="cls-1" d="M398.05,315.43h0.7l0.1,0.7a3.3,3.3,0,0,1,2.05-.87,2,2,0,0,1,2.2,2.24v4.33a0.25,0.25,0,0,1-.26.26h-0.62v-4.37c0-1.07-.34-1.66-1.43-1.66a3.16,3.16,0,0,0-1.86.83v5.2h-0.88v-6.66Z" transform="translate(-244.28 -277.29)"/>
  <path class="cls-1" d="M406,316.13l-1.09-.08v-0.62H406v-1a1.84,1.84,0,0,1,2-2,3.92,3.92,0,0,1,1,.13l-0.13.77a4,4,0,0,0-.88-0.1,1,1,0,0,0-1.09,1.26v0.9h1.57v0.7h-1.57v5.69a0.25,0.25,0,0,1-.26.26H406v-6Z" transform="translate(-244.28 -277.29)"/>
  <path class="cls-1" d="M410,318.16a2.72,2.72,0,1,1,5.42,0v1.18a2.72,2.72,0,1,1-5.42,0v-1.18Zm0.9,1.08c0,1.35.49,2.22,1.82,2.22s1.81-.87,1.81-2.22v-1c0-1.33-.51-2.2-1.81-2.2s-1.82.87-1.82,2.2v1Z" transform="translate(-244.28 -277.29)"/>
  <path class="cls-1" d="M417.89,315.43h0.7l0.12,1a2.42,2.42,0,0,1,1.78-1.14,2.53,2.53,0,0,1,.62.08l-0.13.78a2.23,2.23,0,0,0-.51-0.05,2.64,2.64,0,0,0-1.7,1.21v4.81h-0.88v-6.66Z" transform="translate(-244.28 -277.29)"/>
  <path class="cls-1" d="M423.12,315.43h0.7l0.1,0.7a3.07,3.07,0,0,1,1.91-.87,2,2,0,0,1,1.9,1,3.48,3.48,0,0,1,2.13-1,2,2,0,0,1,2.2,2.24v4.33a0.25,0.25,0,0,1-.26.26h-0.62v-4.37c0-1.07-.34-1.66-1.43-1.66a2.93,2.93,0,0,0-1.78.84,3,3,0,0,1,.07.61v4.58h-0.88v-4.37c0-1.07-.34-1.66-1.43-1.66a2.81,2.81,0,0,0-1.72.84v5.19h-0.88v-6.66Z" transform="translate(-244.28 -277.29)"/>
  <path class="cls-1" d="M438.44,321.41a3.06,3.06,0,0,1-2,.85,1.9,1.9,0,0,1-2.12-1.94c0-1.38,1.16-1.92,2.85-1.92h1.22v-0.64a1.42,1.42,0,0,0-1.6-1.7,5.82,5.82,0,0,0-1.81.31l-0.2-.77a6.6,6.6,0,0,1,2-.34,2.19,2.19,0,0,1,2.48,2.33v4.5h-0.69Zm-0.09-2.29h-1.17c-1.2,0-2,.27-2,1.2a1.12,1.12,0,0,0,1.3,1.14,2.77,2.77,0,0,0,1.86-.79v-1.55Z" transform="translate(-244.28 -277.29)"/>
  <path class="cls-1" d="M442.08,316.13l-1.09-.08v-0.62h1.09v-2.18H443v2.18h1.64v0.7H443v4.06a1.05,1.05,0,0,0,1.09,1.27,4,4,0,0,0,.88-0.1l0.13,0.77a4,4,0,0,1-1,.13,1.81,1.81,0,0,1-2-2v-4.17Z" transform="translate(-244.28 -277.29)"/>
  <path class="cls-1" d="M446.86,313.56a0.55,0.55,0,0,1,.57-0.56,0.57,0.57,0,0,1,.6.56,0.6,0.6,0,0,1-.6.6A0.58,0.58,0,0,1,446.86,313.56Zm0.13,1.87h0.88v6.4a0.24,0.24,0,0,1-.26.26H447v-6.66Z" transform="translate(-244.28 -277.29)"/>
  <path class="cls-1" d="M450.63,312.65h0.88v5.64l1.4-.36a1,1,0,0,0,.66-0.61l0.75-1.88h0.92l-0.9,2.18a1.69,1.69,0,0,1-.9.95l2,3.52h-1l-1.82-3.26-1.14.3v2.7a0.24,0.24,0,0,1-.26.26h-0.62v-9.44Z" transform="translate(-244.28 -277.29)"/>
  <path class="cls-1" d="M461.32,318h3.91v0.78h-3.91V318Z" transform="translate(-244.28 -277.29)"/>
  <path class="cls-1" d="M471.63,316.23c0-2.16,1.16-3.38,3.22-3.38a8.87,8.87,0,0,1,2.52.39l-0.18.78a8.33,8.33,0,0,0-2.29-.36c-1.85,0-2.34,1.22-2.34,2.72v2.38c0,1.48.49,2.7,2.34,2.7a8.75,8.75,0,0,0,2.29-.35l0.18,0.77a8.81,8.81,0,0,1-2.52.39c-2.07,0-3.22-1.2-3.22-3.37v-2.67Z" transform="translate(-244.28 -277.29)"/>
  <path class="cls-1" d="M479.5,318.16a2.72,2.72,0,1,1,5.42,0v1.18a2.72,2.72,0,1,1-5.42,0v-1.18Zm0.9,1.08c0,1.35.49,2.22,1.82,2.22s1.81-.87,1.81-2.22v-1c0-1.33-.51-2.2-1.81-2.2s-1.82.87-1.82,2.2v1Z" transform="translate(-244.28 -277.29)"/>
  <path class="cls-1" d="M487.39,315.43h0.7l0.1,0.7a3.07,3.07,0,0,1,1.91-.87,2,2,0,0,1,1.9,1,3.48,3.48,0,0,1,2.13-1,2,2,0,0,1,2.2,2.24v4.33a0.25,0.25,0,0,1-.26.26h-0.62v-4.37c0-1.07-.34-1.66-1.43-1.66a2.93,2.93,0,0,0-1.78.84,3,3,0,0,1,.07.61v4.58h-0.88v-4.37c0-1.07-.34-1.66-1.43-1.66a2.81,2.81,0,0,0-1.72.84v5.19h-0.88v-6.66Z" transform="translate(-244.28 -277.29)"/>
  <path class="cls-1" d="M499,315.43h0.71l0.09,0.7a3.13,3.13,0,0,1,2-.87,2.34,2.34,0,0,1,2.42,2.65v1.69a2.34,2.34,0,0,1-2.42,2.65,3.34,3.34,0,0,1-1.94-.79v3.24H499v-9.27Zm0.88,5.21a3.16,3.16,0,0,0,1.82.82c1.14,0,1.64-.69,1.64-2.07v-1.27c0-1.38-.49-2.07-1.64-2.07a3.19,3.19,0,0,0-1.82.84v3.74Z" transform="translate(-244.28 -277.29)"/>
  <path class="cls-1" d="M506.65,315.69a0.25,0.25,0,0,1,.26-0.26h0.62v4.37c0,1.08.34,1.66,1.44,1.66a3.05,3.05,0,0,0,1.85-.83v-5.2h0.88v6.66H511l-0.09-.7a3.33,3.33,0,0,1-2.05.87,2,2,0,0,1-2.21-2.25v-4.32Z" transform="translate(-244.28 -277.29)"/>
  <path class="cls-1" d="M514.62,316.13l-1.09-.08v-0.62h1.09v-2.18h0.88v2.18h1.64v0.7h-1.64v4.06a1.05,1.05,0,0,0,1.09,1.27,4,4,0,0,0,.88-0.1l0.13,0.77a4,4,0,0,1-1,.13,1.81,1.81,0,0,1-1.95-2v-4.17Z" transform="translate(-244.28 -277.29)"/>
  <path class="cls-1" d="M519.23,317.93a2.55,2.55,0,0,1,2.6-2.67,2.58,2.58,0,0,1,2.6,2.67v0.73a0.26,0.26,0,0,1-.25.26h-4.07v0.69a1.72,1.72,0,0,0,1.79,1.86,7.29,7.29,0,0,0,2-.35l0.2,0.75a7.33,7.33,0,0,1-2.22.39,2.56,2.56,0,0,1-2.68-2.65v-1.68Zm4.32,0.29v-0.33a1.72,1.72,0,1,0-3.43,0v0.33h3.43Z" transform="translate(-244.28 -277.29)"/>
  <path class="cls-1" d="M526.83,315.43h0.7l0.12,1a2.42,2.42,0,0,1,1.78-1.14,2.53,2.53,0,0,1,.62.08l-0.13.78a2.23,2.23,0,0,0-.51-0.05,2.64,2.64,0,0,0-1.7,1.21v4.81h-0.88v-6.66Z" transform="translate(-244.28 -277.29)"/>
  <path class="cls-1" d="M535.63,321a7.77,7.77,0,0,0,2.28.44,1.64,1.64,0,0,0,1.92-1.7c0-2.24-4.24-1.65-4.24-4.5,0-1.52,1.12-2.4,2.76-2.4a5.72,5.72,0,0,1,2.09.44l-0.23.75a5.61,5.61,0,0,0-1.86-.39,1.54,1.54,0,0,0-1.81,1.6c0,2,4.24,1.59,4.24,4.5,0,1.52-1.08,2.51-2.87,2.51a8.42,8.42,0,0,1-2.44-.44Z" transform="translate(-244.28 -277.29)"/>
  <path class="cls-1" d="M542.88,318.19c0-1.77.94-2.92,2.65-2.92a7,7,0,0,1,2.05.34l-0.21.75a6,6,0,0,0-1.82-.3c-1.34,0-1.78.92-1.78,2.22v0.92c0,1.33.44,2.26,1.78,2.26a5.69,5.69,0,0,0,1.82-.31l0.21,0.77a7,7,0,0,1-2.05.34c-1.72,0-2.65-1.18-2.65-3v-1.12Z" transform="translate(-244.28 -277.29)"/>
  <path class="cls-1" d="M549.8,313.56a0.55,0.55,0,0,1,.57-0.56,0.57,0.57,0,0,1,.6.56,0.6,0.6,0,0,1-.6.6A0.58,0.58,0,0,1,549.8,313.56Zm0.13,1.87h0.88v6.4a0.24,0.24,0,0,1-.26.26h-0.62v-6.66Z" transform="translate(-244.28 -277.29)"/>
  <path class="cls-1" d="M553.27,317.93a2.55,2.55,0,0,1,2.6-2.67,2.58,2.58,0,0,1,2.6,2.67v0.73a0.26,0.26,0,0,1-.25.26h-4.07v0.69a1.72,1.72,0,0,0,1.79,1.86,7.29,7.29,0,0,0,2-.35l0.2,0.75a7.33,7.33,0,0,1-2.22.39,2.56,2.56,0,0,1-2.68-2.65v-1.68Zm4.32,0.29v-0.33a1.72,1.72,0,1,0-3.43,0v0.33h3.43Z" transform="translate(-244.28 -277.29)"/>
  <path class="cls-1" d="M560.88,315.43h0.7l0.1,0.7a3.3,3.3,0,0,1,2.05-.87,2,2,0,0,1,2.2,2.24v4.33a0.25,0.25,0,0,1-.26.26H565v-4.37c0-1.07-.34-1.66-1.43-1.66a3.16,3.16,0,0,0-1.86.83v5.2h-0.88v-6.66Z" transform="translate(-244.28 -277.29)"/>
  <path class="cls-1" d="M568.34,318.19c0-1.77.94-2.92,2.65-2.92a7,7,0,0,1,2.05.34l-0.21.75a6,6,0,0,0-1.82-.3c-1.34,0-1.78.92-1.78,2.22v0.92c0,1.33.44,2.26,1.78,2.26a5.69,5.69,0,0,0,1.82-.31l0.21,0.77a7,7,0,0,1-2.05.34c-1.72,0-2.65-1.18-2.65-3v-1.12Z" transform="translate(-244.28 -277.29)"/>
  <path class="cls-1" d="M575.09,317.93a2.55,2.55,0,0,1,2.6-2.67,2.58,2.58,0,0,1,2.6,2.67v0.73a0.26,0.26,0,0,1-.25.26H576v0.69a1.72,1.72,0,0,0,1.79,1.86,7.29,7.29,0,0,0,2-.35l0.2,0.75a7.33,7.33,0,0,1-2.22.39,2.56,2.56,0,0,1-2.68-2.65v-1.68Zm4.32,0.29v-0.33a1.72,1.72,0,1,0-3.43,0v0.33h3.43Z" transform="translate(-244.28 -277.29)"/>
  <path class="cls-2" d="M246.22,302.18c5.9-13.43,20.71-13.91,30.62-4.77,7.3,6.74,7.95,17.48,8.59,26.77,0-.51,2.29-2.43,2.21-3.59-0.9-13-2.75-25.82-16-31.62s-22.3,4.48-27.25,15.74c-0.68,1.54,1.57-2,1.81-2.52h0Z" transform="translate(-244.28 -277.29)"/>
  <circle class="cls-1" cx="14.05" cy="26.27" r="3.98"/>
  <circle class="cls-1" cx="29.72" cy="27.72" r="3.98"/>
  <path class="cls-1" d="M272.33,290a1.61,1.61,0,0,1-2.1.86l-2.72-1.14a1.61,1.61,0,0,1-.86-2.1h0a1.61,1.61,0,0,1,2.1-.86l2.72,1.14a1.61,1.61,0,0,1,.86,2.1h0Z" transform="translate(-244.28 -277.29)"/>
  <path class="cls-1" d="M271.14,286a7.56,7.56,0,0,1,2.8-3,6.66,6.66,0,0,0,1.47-2.25,3.38,3.38,0,0,0,.56-1.18c0-.06.17-0.42,0-0.27-3.12,2.17-5.12,5.86-6.61,9.26-0.29.67-.16,0.72,0.27,0.15a13.42,13.42,0,0,0,1.54-2.67h0Z" transform="translate(-244.28 -277.29)"/>
  <path class="cls-1" d="M274.49,279.78c0.87-3.85,3.85,1.25,1.83,2.6-2.11,1.54-3.27-3.85-.87-4.52" transform="translate(-244.28 -277.29)"/>
</svg>
