<svg id="Ebene_1" data-name="Ebene 1" xmlns="http://www.w3.org/2000/svg" viewBox="0 0 336.78 53.14"><defs><style>.cls-1{font-size:38.5px;letter-spacing:1px;}.cls-1,.cls-2,.cls-5{fill:#1a171b;}.cls-1,.cls-2{font-family:Alwyn New;}.cls-2{font-size:13px;}.cls-3{white-space:pre;}.cls-4{fill:#c6c7c8;}</style></defs><title>robotik-logos_final</title><text class="cls-1" transform="translate(51.61 32.94)">LABOR<tspan x="123.89" y="0">ROB</tspan><tspan x="199.27" y="0">O</tspan><tspan x="225.95" y="0">TIK</tspan></text><text class="cls-2" transform="translate(148.71 50.36)">I<tspan x="3.95" y="0">n</tspan><tspan x="11.7" y="0">f</tspan><tspan x="16.18" y="0">o</tspan><tspan x="23.79" y="0">r</tspan><tspan x="29.02" y="0">m</tspan><tspan x="40.65" y="0">a</tspan><tspan x="47.83" y="0">ti</tspan><tspan x="56.52" y="0">k</tspan><tspan class="cls-3" x="63.37" y="0"> - Com</tspan><tspan x="104.92" y="0">p</tspan><tspan x="112.62" y="0">u</tspan><tspan x="120.37" y="0">t</tspan><tspan x="125.41" y="0">er Sc</tspan><tspan x="155.83" y="0">i</tspan><tspan x="159.46" y="0">en</tspan><tspan x="174.52" y="0">c</tspan><tspan x="181.27" y="0">e</tspan></text><path class="cls-4" d="M431.18,1392.85c5.9-13.43,20.71-13.91,30.62-4.77,7.3,6.74,7.95,17.48,8.59,26.77,0-.51,2.29-2.43,2.21-3.59-0.9-13-2.75-25.82-16-31.62s-22.3,4.48-27.25,15.74c-0.68,1.54,1.57-2,1.81-2.52h0Z" transform="translate(-429.25 -1362.39)"/><circle class="cls-5" cx="14.05" cy="31.83" r="3.98"/><circle class="cls-5" cx="29.72" cy="33.28" r="3.98"/><path class="cls-5" d="M457.29,1380.66a1.61,1.61,0,0,1-2.1.86l-2.72-1.14a1.61,1.61,0,0,1-.86-2.1h0a1.61,1.61,0,0,1,2.1-.86l2.72,1.14a1.61,1.61,0,0,1,.86,2.1h0Z" transform="translate(-429.25 -1362.39)"/><path class="cls-5" d="M456.11,1376.68a7.56,7.56,0,0,1,2.8-3,6.66,6.66,0,0,0,1.47-2.25,3.38,3.38,0,0,0,.56-1.18c0-.06.17-0.42,0-0.27-3.12,2.17-5.12,5.86-6.61,9.26-0.29.67-.16,0.72,0.27,0.15a13.42,13.42,0,0,0,1.54-2.67h0Z" transform="translate(-429.25 -1362.39)"/><path class="cls-5" d="M459.45,1370.45c0.87-3.85,3.85,1.25,1.83,2.6-2.11,1.54-3.27-3.85-.87-4.52" transform="translate(-429.25 -1362.39)"/></svg>